<?xml version="1.0" standalone="no"?>
<!DOCTYPE svg PUBLIC "-//W3C//DTD SVG 20010904//EN"
 "http://www.w3.org/TR/2001/REC-SVG-20010904/DTD/svg10.dtd">
<svg version="1.0" xmlns="http://www.w3.org/2000/svg"
 width="600.000000pt" height="337.000000pt" viewBox="0 0 600.000000 337.000000"
 preserveAspectRatio="xMidYMid meet">
<g transform="translate(0.000000,337.000000) scale(0.100000,-0.100000)"
fill="#000000" stroke="none">
<path d="M2 3258 c3 -20 10 -24 68 -31 628 -80 1913 -280 2525 -393 105 -19
237 -44 295 -54 1111 -204 2063 -467 2523 -696 197 -99 348 -217 393 -309 26
-55 25 -147 -3 -200 -27 -50 -129 -150 -208 -203 -280 -188 -887 -398 -1700
-587 -516 -121 -1354 -283 -1990 -385 -104 -17 -228 -37 -275 -45 -47 -8 -146
-24 -220 -34 -74 -11 -211 -32 -305 -46 -179 -27 -576 -85 -908 -131 -173 -24
-197 -30 -197 -46 0 -10 7 -18 15 -18 20 0 621 83 870 121 110 16 277 41 370
54 94 14 222 34 285 45 63 11 203 34 310 51 223 35 791 133 895 154 39 8 144
28 235 45 163 30 236 45 560 114 530 113 884 204 1275 328 174 55 378 130 471
173 32 15 91 43 130 61 169 77 343 207 403 299 131 203 3 399 -387 594 -391
196 -973 371 -1922 577 -124 27 -615 125 -695 139 -44 8 -165 29 -270 49 -156
29 -472 82 -860 146 -197 33 -736 114 -960 146 -60 8 -184 26 -275 39 -91 13
-221 31 -290 40 -69 9 -133 19 -143 22 -15 4 -18 0 -15 -19z"/>
</g>
</svg>
